<svg class="max-w-full" width="140" height="auto" fill="none" viewBox="0 0 135 60" xmlns="http://www.w3.org/2000/svg" data-fc-idx="0"><path d="m43.9701 47.5139h-3.5327l-4.9901-13.5754h3.8033l2.1446 6.1142c.3262.9283.6524 2.0171.8953 3.0012h.0555c.2152-.9283.4859-1.9683.8121-2.8896l2.1723-6.2258h3.6923z" fill="#ffffff"></path><path d="m56.7879 41.4834c-3.651 0-4.467 1.0252-4.467 2.0705 0 .8375.5947 1.387 1.5973 1.387 1.708 0 2.8697-1.5747 2.8697-3.1426zm.2697 5.7692c0-.7639.0277-1.521.1383-2.2045l-.0276-.0268c-.65 1.4674-2.2958 2.4926-4.3011 2.4926-2.4341 0-3.8447-1.3334-3.8447-3.4307 0-3.1225 3.1947-4.7708 7.7654-4.7708v-.7036c0-1.3602-.6776-2.0705-2.6207-2.0705-1.2171 0-2.8421.3886-3.9761 1.0185l-.2974-2.8076c1.3554-.469 3.0841-.8107 4.8128-.8107 4.3288 0 5.5458 1.7086 5.5458 4.5363v5.4275c0 1.052.0277 2.2849.083 3.357h-3.2777z" fill="#ffffff"></path><path d="m70.595 47.5071v-8.4949c0-1.3862-.3684-2.2193-1.6008-2.2193-1.7013 0-3.0409 1.9803-3.0409 4.302v6.4122h-3.3556v-13.2818h3.1681c0 .6146-.0536 1.6594-.1876 2.3559l.0268.0273c.7837-1.5774 2.3041-2.67 4.4274-2.67 2.9337 0 3.8781 1.9257 3.8781 4.2474v9.328h-3.3289z" fill="#ffffff"></path><path d="m97.1439 37.3236c-2.2966-.5115-3.4449 1.0914-3.4449 4.7746v5.4157h-3.1961v-13.2665h3.0175c0 .6685-.0765 1.7325-.2233 2.6738h.0511c.5933-1.6847 1.799-3.1512 3.9424-2.9671l-.1531 3.3627z" fill="#ffffff"></path><path d="m103.541 36.4098c-1.444 0-2.449 1.018-2.644 2.5918h4.994c.056-1.6274-.871-2.5918-2.35-2.5918zm5.705 4.8689h-8.405c-.028 2.4378 1.228 3.6166 3.739 3.6166 1.339 0 2.783-.288 3.955-.8104l.328 2.5919c-1.444.5491-3.167.8371-4.855.8371-4.3105 0-6.717-2.0695-6.717-6.6571 0-3.9849 2.2879-6.9183 6.361-6.9183 4.074 0 5.706 2.5985 5.706 5.8132 0 .4488-.028.9711-.112 1.5203" fill="#ffffff"></path><path d="m81.36 44.8388c-.7478 0-1.2985-.0804-1.7812-.2346v-3.6743c0-2.1791 1.0674-4.1973 2.8485-4.1973 1.5364 0 2.2639 1.2337 2.2639 3.6743 0 3.2318-1.4141 4.4319-3.3244 4.4319m2.0191-10.8821c-1.8356 0-3.3244.8918-3.9906 2.3065h-.0272c.1291-.6839.2107-1.7567.2107-2.5479v-8.0727l-3.4059 2.4607v18.7806c1.516.4157 3.0048.6302 4.9151.6302 4.5481 0 7.1519-3.044 7.1519-7.4492 0-3.8553-1.6996-6.1082-4.8676-6.1082" fill="#ffffff"></path><path d="m118.8 40.4605c0 2.2328-1.063 4.2778-2.848 4.2778-1.547 0-2.263-1.2606-2.263-3.7012 0-3.225 1.384-4.4319 3.332-4.4319.586 0 1.172.0804 1.786.2145v3.6408zm0-6.3965c-.586-.0805-1.118-.1073-1.676-.1073-4.395 0-7.012 3.0441-7.012 7.4492 0 3.728 1.602 6.1082 4.824 6.1082 2.024 0 3.489-1.0191 4.184-2.4674h.048c-.103.704-.157 1.5488-.157 2.1791h3.168v-21.5832l-3.386 2.4406v5.9808z" fill="#ffffff"></path><path d="m131.46 41.4834c-3.651 0-4.467 1.0252-4.467 2.0705 0 .8375.595 1.387 1.597 1.387 1.701 0 2.87-1.5747 2.87-3.1426zm.27 5.7692c0-.7639.027-1.521.131-2.2045l-.028-.0268c-.65 1.4674-2.302 2.4926-4.308 2.4926-2.434 0-3.837-1.3334-3.837-3.4307 0-3.1225 3.194-4.7708 7.765-4.7708v-.7036c0-1.3602-.678-2.0705-2.621-2.0705-1.217 0-2.842.3886-3.976 1.0185l-.297-2.8076c1.348-.469 3.084-.8107 4.813-.8107 4.328 0 5.545 1.7086 5.545 4.5363v5.4275c0 1.052.028 2.2849.083 3.357h-3.27z" fill="#ffffff"></path><path d="m28.6592 39.9725-28.6592-20.9742v-6.9309l28.6592 20.9674z" fill="#c9d3e6"></path><path d="m57.3184 6.93761-28.6592 20.96749v-6.9309l28.6592-20.9742z" fill="#ffffff"></path></svg>